<svg width="28" height="28" viewBox="0 0 28 28" fill="none" xmlns="http://www.w3.org/2000/svg">
<path d="M20.6333 15.072C20.6026 11.9941 23.1432 10.5179 23.2568 10.4433C21.829 8.35561 19.6045 8.06916 18.8128 8.03656C16.9212 7.84444 15.12 9.15077 14.1604 9.15077C13.2027 9.15077 11.7201 8.06471 10.1515 8.09237C8.08802 8.12299 6.18606 9.29252 5.1242 11.1397C2.98122 14.8572 4.57598 20.3665 6.66414 23.3836C7.68501 24.8584 8.90244 26.5179 10.4997 26.4571C12.0391 26.3964 12.6199 25.4614 14.4809 25.4614C16.3419 25.4614 16.8644 26.4571 18.4928 26.426C20.1483 26.3959 21.1978 24.9231 22.2103 23.4424C23.3822 21.7291 23.8648 20.0702 23.8934 19.9862C23.8574 19.9694 20.6664 18.747 20.6333 15.072Z" fill="#434343"/>
<path d="M17.5735 6.03977C18.4206 5.01149 18.9945 3.58268 18.8384 2.16028C17.616 2.20967 16.1363 2.97272 15.2587 4.00001C14.4724 4.91173 13.7849 6.36327 13.9691 7.75998C15.3328 7.86567 16.7236 7.06607 17.5735 6.03977Z" fill="#434343"/>
</svg>
