<svg width="28" height="28" viewBox="0 0 28 28" fill="none" xmlns="http://www.w3.org/2000/svg">
<path d="M7.8867 25.6667H20.1134C23.3334 25.6667 24.6167 23.695 24.7684 21.2917L25.375 11.655C25.5384 9.13504 23.5317 7.00004 21 7.00004C20.2884 7.00004 19.635 6.59171 19.3084 5.96171L18.4684 4.27004C17.9317 3.20837 16.5317 2.33337 15.3417 2.33337H12.67C11.4684 2.33337 10.0684 3.20837 9.5317 4.27004L8.6917 5.96171C8.36503 6.59171 7.7117 7.00004 7.00003 7.00004C4.46837 7.00004 2.4617 9.13504 2.62503 11.655L3.2317 21.2917C3.3717 23.695 4.6667 25.6667 7.8867 25.6667Z" stroke="#292D32" stroke-width="2" stroke-linecap="round" stroke-linejoin="round"/>
<path d="M12.25 9.33337H15.75" stroke="#292D32" stroke-width="2" stroke-linecap="round" stroke-linejoin="round"/>
<path d="M14.0002 21C16.0885 21 17.7918 19.2966 17.7918 17.2083C17.7918 15.12 16.0885 13.4166 14.0002 13.4166C11.9118 13.4166 10.2085 15.12 10.2085 17.2083C10.2085 19.2966 11.9118 21 14.0002 21Z" stroke="#292D32" stroke-width="2" stroke-linecap="round" stroke-linejoin="round"/>
</svg>
