<svg width="24" height="24" viewBox="0 0 24 24" fill="none" xmlns="http://www.w3.org/2000/svg">
<path fill-rule="evenodd" clip-rule="evenodd" d="M5.58927 12C5.58927 11.2682 5.71074 10.5665 5.9278 9.90843L2.13058 7.00885C1.3905 8.51137 0.973633 10.2045 0.973633 12C0.973633 13.794 1.39015 15.486 2.12899 16.9876L5.9241 14.0824C5.70915 13.4273 5.58927 12.7283 5.58927 12Z" fill="#FBBC05"/>
<path fill-rule="evenodd" clip-rule="evenodd" d="M12.2566 5.34243C13.8464 5.34243 15.2824 5.90576 16.4107 6.82752L19.6928 3.54997C17.6928 1.80875 15.1285 0.733307 12.2566 0.733307C7.79782 0.733307 3.96574 3.28309 2.13086 7.00884L5.9279 9.90842C6.80283 7.25266 9.29681 5.34243 12.2566 5.34243Z" fill="#EA4335"/>
<path fill-rule="evenodd" clip-rule="evenodd" d="M12.2566 18.6575C9.29699 18.6575 6.80301 16.7473 5.92808 14.0915L2.13086 16.9906C3.96574 20.7168 7.79782 23.2666 12.2566 23.2666C15.0085 23.2666 17.6359 22.2894 19.6077 20.4586L16.0035 17.6722C14.9865 18.3128 13.7058 18.6575 12.2566 18.6575Z" fill="#34A853"/>
<path fill-rule="evenodd" clip-rule="evenodd" d="M23.026 12C23.026 11.3342 22.9234 10.6172 22.7696 9.95154H12.2563V14.3045H18.308C18.0053 15.7887 17.1818 16.9297 16.0032 17.6722L19.6075 20.4586C21.6788 18.5362 23.026 15.6724 23.026 12Z" fill="#4285F4"/>
</svg>
