<svg width="24" height="24" viewBox="0 0 24 24" fill="none" xmlns="http://www.w3.org/2000/svg">
<path d="M6.45492 21.7553L6.64033 21.1846L6.45492 21.7553ZM3.24472 18.5451L3.81535 18.3597L3.24472 18.5451ZM20.7553 18.5451L20.1846 18.3597L20.7553 18.5451ZM17.5451 21.7553L17.3597 21.1846L17.5451 21.7553ZM17.5451 8.24472L17.3597 8.81535L17.5451 8.24472ZM20.7553 11.4549L20.1846 11.6403L20.7553 11.4549ZM6.45492 8.24472L6.64033 8.81535L6.45492 8.24472ZM3.24472 11.4549L3.81535 11.6403L3.24472 11.4549ZM10 8.6H14V7.4H10V8.6ZM14 21.4H10V22.6H14V21.4ZM10 21.4C8.09202 21.4 7.28033 21.3926 6.64033 21.1846L6.2695 22.3259C7.13583 22.6074 8.18542 22.6 10 22.6V21.4ZM2.4 15C2.4 16.8146 2.3926 17.8642 2.67408 18.7305L3.81535 18.3597C3.6074 17.7197 3.6 16.908 3.6 15H2.4ZM6.64033 21.1846C5.3008 20.7494 4.25059 19.6992 3.81535 18.3597L2.67408 18.7305C3.22802 20.4353 4.56465 21.772 6.2695 22.3259L6.64033 21.1846ZM20.4 15C20.4 16.908 20.3926 17.7197 20.1846 18.3597L21.3259 18.7305C21.6074 17.8642 21.6 16.8146 21.6 15H20.4ZM14 22.6C15.8146 22.6 16.8642 22.6074 17.7305 22.3259L17.3597 21.1846C16.7197 21.3926 15.908 21.4 14 21.4V22.6ZM20.1846 18.3597C19.7494 19.6992 18.6992 20.7494 17.3597 21.1846L17.7305 22.3259C19.4353 21.772 20.772 20.4353 21.3259 18.7305L20.1846 18.3597ZM21.6 15C21.6 13.1854 21.6074 12.1358 21.3259 11.2695L20.1846 11.6403C20.3926 12.2803 20.4 13.092 20.4 15H21.6ZM17.3597 8.81535C18.6992 9.25059 19.7494 10.3008 20.1846 11.6403L21.3259 11.2695C20.772 9.56465 19.4353 8.22802 17.7305 7.67408L17.3597 8.81535ZM3.6 15C3.6 13.092 3.6074 12.2803 3.81535 11.6403L2.67408 11.2695C2.3926 12.1358 2.4 13.1854 2.4 15H3.6ZM6.2695 7.67408C4.56465 8.22802 3.22802 9.56465 2.67408 11.2695L3.81535 11.6403C4.25059 10.3008 5.3008 9.25059 6.64033 8.81535L6.2695 7.67408ZM16.4 7V8H17.6V7H16.4ZM7.6 8V7H6.4V8H7.6ZM12 2.6C14.4301 2.6 16.4 4.56995 16.4 7H17.6C17.6 3.90721 15.0928 1.4 12 1.4V2.6ZM12 1.4C8.90721 1.4 6.4 3.90721 6.4 7H7.6C7.6 4.56995 9.56995 2.6 12 2.6V1.4ZM9.4 15C9.4 16.4359 10.5641 17.6 12 17.6V16.4C11.2268 16.4 10.6 15.7732 10.6 15H9.4ZM12 17.6C13.4359 17.6 14.6 16.4359 14.6 15H13.4C13.4 15.7732 12.7732 16.4 12 16.4V17.6ZM14.6 15C14.6 13.5641 13.4359 12.4 12 12.4V13.6C12.7732 13.6 13.4 14.2268 13.4 15H14.6ZM12 12.4C10.5641 12.4 9.4 13.5641 9.4 15H10.6C10.6 14.2268 11.2268 13.6 12 13.6V12.4ZM10 7.4C8.58249 7.4 7.63724 7.39791 6.90032 7.52205L7.09968 8.70538C7.71276 8.60209 8.53419 8.6 10 8.6V7.4ZM6.90032 7.52205C6.67888 7.55936 6.471 7.60861 6.2695 7.67408L6.64033 8.81535C6.77842 8.77048 6.92818 8.73427 7.09968 8.70538L6.90032 7.52205ZM6.4 8V8.11372H7.6V8H6.4ZM14 8.6C15.4658 8.6 16.2872 8.60209 16.9003 8.70538L17.0997 7.52205C16.3628 7.39791 15.4175 7.4 14 7.4V8.6ZM16.9003 8.70538C17.0718 8.73427 17.2216 8.77048 17.3597 8.81535L17.7305 7.67408C17.529 7.60861 17.3211 7.55936 17.0997 7.52205L16.9003 8.70538ZM16.4 8V8.11372H17.6V8H16.4Z" fill="#A6A6A6"/>
</svg>
