<svg width="26" height="26" viewBox="0 0 26 26" fill="none" xmlns="http://www.w3.org/2000/svg">
<path d="M8.21783 21.9384L8.1005 22.6792H8.1005L8.21783 21.9384ZM4.06156 17.7822L4.80232 17.6648L4.06156 17.7822ZM21.9384 17.7822L22.6792 17.8995V17.8995L21.9384 17.7822ZM17.7822 21.9384L17.8995 22.6792H17.8995L17.7822 21.9384ZM21.6 11.5496C21.3513 11.2184 20.8811 11.1516 20.5499 11.4003C20.2187 11.6491 20.1519 12.1192 20.4007 12.4504L21.6 11.5496ZM5.59931 12.4504C5.84808 12.1192 5.78126 11.6491 5.45007 11.4003C5.11888 11.1516 4.64873 11.2184 4.39996 11.5496L5.59931 12.4504ZM12.25 18C12.25 18.4142 12.5858 18.75 13 18.75C13.4142 18.75 13.75 18.4142 13.75 18H12.25ZM8.41232 7.53403C8.15497 7.8586 8.20946 8.33034 8.53403 8.58768C8.8586 8.84503 9.33034 8.79054 9.58768 8.46597L8.41232 7.53403ZM10.3978 6.23703L9.81016 5.77106L10.3978 6.23703ZM15.6022 6.23703L16.1898 5.77106L15.6022 6.23703ZM16.4123 8.46597C16.6697 8.79054 17.1414 8.84503 17.466 8.58768C17.7905 8.33034 17.845 7.8586 17.5877 7.53403L16.4123 8.46597ZM12.7493 4.01989L12.6313 3.27923L12.6313 3.27923L12.7493 4.01989ZM13.2507 4.01989L13.3687 3.27923L13.3687 3.27923L13.2507 4.01989ZM21.25 15V16H22.75V15H21.25ZM16 21.25H10V22.75H16V21.25ZM4.75 16V15H3.25V16H4.75ZM10 21.25C9.04233 21.25 8.65082 21.2477 8.33515 21.1977L8.1005 22.6792C8.56216 22.7523 9.09965 22.75 10 22.75V21.25ZM3.25 16C3.25 16.9003 3.24767 17.4378 3.32079 17.8995L4.80232 17.6648C4.75233 17.3492 4.75 16.9577 4.75 16H3.25ZM8.33515 21.1977C6.51661 20.9096 5.09035 19.4834 4.80232 17.6648L3.32079 17.8995C3.71048 20.3599 5.64012 22.2895 8.1005 22.6792L8.33515 21.1977ZM21.25 16C21.25 16.9577 21.2477 17.3492 21.1977 17.6648L22.6792 17.8995C22.7523 17.4378 22.75 16.9003 22.75 16H21.25ZM16 22.75C16.9003 22.75 17.4378 22.7523 17.8995 22.6792L17.6648 21.1977C17.3492 21.2477 16.9577 21.25 16 21.25V22.75ZM21.1977 17.6648C20.9096 19.4834 19.4834 20.9096 17.6648 21.1977L17.8995 22.6792C20.3599 22.2895 22.2895 20.3599 22.6792 17.8995L21.1977 17.6648ZM22.75 15C22.75 13.7064 22.3219 12.5106 21.6 11.5496L20.4007 12.4504C20.9342 13.1607 21.25 14.0424 21.25 15H22.75ZM4.75 15C4.75 14.0424 5.06583 13.1607 5.59931 12.4504L4.39996 11.5496C3.67806 12.5106 3.25 13.7064 3.25 15H4.75ZM13.75 18V5H12.25V18H13.75ZM9.58768 8.46597L10.9855 6.703L9.81016 5.77106L8.41232 7.53403L9.58768 8.46597ZM15.0145 6.703L16.4123 8.46597L17.5877 7.53403L16.1898 5.77106L15.0145 6.703ZM10.9855 6.703C11.5543 5.98568 11.9418 5.49884 12.2682 5.17113C12.5913 4.84678 12.7612 4.77747 12.8673 4.76055L12.6313 3.27923C12.0582 3.37055 11.6096 3.70685 11.2055 4.11252C10.8047 4.51484 10.3562 5.08245 9.81016 5.77106L10.9855 6.703ZM16.1898 5.77106C15.6438 5.08245 15.1953 4.51484 14.7945 4.11252C14.3904 3.70685 13.9418 3.37055 13.3687 3.27923L13.1327 4.76055C13.2388 4.77747 13.4087 4.84678 13.7318 5.17113C14.0582 5.49884 14.4457 5.98568 15.0145 6.703L16.1898 5.77106ZM12.8673 4.76055C12.9117 4.75348 12.9559 4.75 13 4.75V3.25C12.8766 3.25 12.7534 3.25978 12.6313 3.27923L12.8673 4.76055ZM13 4.75C13.0441 4.75 13.0883 4.75348 13.1327 4.76055L13.3687 3.27923C13.2466 3.25978 13.1234 3.25 13 3.25V4.75ZM13.75 5V4H12.25V5H13.75Z" fill="#C00000"/>
</svg>
